<svg width="24" height="26" viewBox="0 0 24 26" fill="none" xmlns="http://www.w3.org/2000/svg">
<g clip-path="url(#clip0)">
<path d="M15.3884 21.3861V22.019C15.3884 23.9415 13.7945 25.5 11.8283 25.5C9.86208 25.5 8.26816 23.9415 8.26816 22.019V21.3861H3.41344C1.80473 21.3861 0.50061 20.1109 0.50061 18.538V18.0545C0.50061 16.8275 1.20957 15.7059 2.33193 15.1572L2.33647 15.155C2.83773 14.9099 3.17362 14.4287 3.22436 13.883L3.80234 7.66654C4.17971 3.60774 7.66012 0.5 11.8283 0.5C15.9965 0.5 19.4769 3.60774 19.8542 7.66654L20.4322 13.883C20.4829 14.4287 20.8188 14.9099 21.3201 15.155L21.3246 15.1572C22.447 15.7059 23.156 16.8275 23.156 18.0545V18.538C23.156 20.1109 21.8518 21.3861 20.2431 21.3861H15.3884ZM13.4465 21.3861H10.21V22.019C10.21 22.8929 10.9346 23.6013 11.8283 23.6013C12.722 23.6013 13.4465 22.8929 13.4465 22.019V21.3861ZM11.8283 2.39873C8.66447 2.39873 6.02269 4.75764 5.73625 7.83844L5.15827 14.0549C5.04665 15.2555 4.30767 16.3141 3.20491 16.8532C2.73589 17.0825 2.4425 17.5467 2.4425 18.0545V18.538C2.4425 19.0623 2.8772 19.4873 3.41344 19.4873H20.2431C20.7794 19.4873 21.2141 19.0623 21.2141 18.538V18.0545C21.2141 17.5467 20.9207 17.0825 20.4562 16.8555C19.3489 16.3141 18.6099 15.2555 18.4983 14.0549L17.9203 7.83844C17.6339 4.75764 14.9921 2.39873 11.8283 2.39873Z" fill="#A9B4C5"/>
</g>
<defs>
<clipPath id="clip0">
<rect width="22.7273" height="25" fill="white" transform="translate(0.50061 0.5)"/>
</clipPath>
</defs>
</svg>
